<?xml version="1.0" encoding="utf-8"?>
<!-- Generator: Adobe Illustrator 23.0.6, SVG Export Plug-In . SVG Version: 6.00 Build 0)  -->
<svg version="1.1" id="Layer_1" xmlns="http://www.w3.org/2000/svg" xmlns:xlink="http://www.w3.org/1999/xlink" x="0px" y="0px"
	 viewBox="0 0 117.32 139.83" style="enable-background:new 0 0 117.32 139.83;" xml:space="preserve">
<style type="text/css">
	.st0{fill:#FFFFFF;}
</style>
<g>
	<g>
		<path class="st0" d="M117.32,96.93c-5.93-1.42-9.48-5.21-9.48-10.9V53.8C107.84,19.67,82.71,0,48.35,0
			C37.21,0,26.31,3.79,19.2,6.4v34.84c6.4-2.13,13.75-3.79,24.41-3.79c16.59,0,30.1,4.98,38.63,14.22
			C79.63,37.45,68.02,25.6,45.98,25.6c-7.11,0-14.93,2.13-14.93,2.13V14.7c0,0,6.87-2.85,17.3-2.85c27.49,0,47.64,15.41,47.64,41.95
			v34.6c0,7.35,3.79,11.61,9.48,15.64v15.17c-6.16-1.18-11.85-4.27-15.88-10.9c-7.11,11.85-20.38,19.67-35.55,19.67
			c-23.23,0-42.19-18.49-42.19-37.45c0-17.3,13.27-27.49,29.39-27.49c14.93,0,29.15,4.74,29.15,22.75c0,9.24-7.11,16.59-16.35,16.59
			c-9.24,0-16.59-7.35-16.59-16.59V75.13c-4.98,0.24-11.85,4.5-11.85,15.4c0,12.09,12.8,23.7,28.44,23.7
			c15.64,0,28.2-12.8,28.2-28.44c0-27.02-19.91-34.6-41-34.6C18.49,51.19,0,65.65,0,90.53c0,25.12,24.18,49.3,54.04,49.3
			c14.22,0,27.25-5.45,36.97-14.46c7.58,5.21,16.59,8.06,26.31,8.06V96.93z"/>
	</g>
</g>
</svg>
